<svg xmlns="http://www.w3.org/2000/svg" width="852" height="658" viewBox="0 0 852 658"><rect width="100%" height="100%" fill="#fbfaf7"/><text x="30" y="22" font-size="14" font-family="Helvetica, Arial" font-weight="bold">Hotel ground floor — conceptual back-of-house plan</text><polygon points="672.6,115 676.4,116.6 678,120.4 678,217.6 676.4,221.4 672.6,223 143.4,223 139.6,221.4 138,217.6 138,169 138.7,160.6 140.6,152.3 143.9,144.5 148.3,137.3 153.8,130.8 160.3,125.3 167.5,120.9 175.3,117.6 183.6,115.7 192,115" fill="#f3f2ee" stroke="#333" stroke-width="1.2"/><polygon points="672.6,218.5 676.4,220.1 678,223.9 678,406.6 676.4,410.4 672.6,412 575.4,412 571.6,410.4 570,406.6 570,223.9 571.6,220.1 575.4,218.5" fill="#f3f2ee" stroke="#333" stroke-width="1.2"/><polygon points="600.6,394 604.4,395.6 606,399.4 606,451.6 605.3,460 603.4,468.3 600.1,476.1 595.7,483.3 590.2,489.8 583.7,495.3 576.5,499.7 568.7,503 560.4,504.9 552,505.6 160.5,505.6 151.9,503.9 144.6,499 139.7,491.7 138,483.1 138,399.4 139.6,395.6 143.4,394" fill="#f3f2ee" stroke="#333" stroke-width="1.2"/><polygon points="292.8,399.4 297.9,401.5 300,406.6 300,512.8 298.1,520 292.8,525.3 285.6,527.2 186.6,527.2 177.8,526.3 169.4,523.8 161.6,519.6 154.8,514 149.2,507.2 145,499.4 142.5,491 141.6,482.2 141.6,406.6 143.7,401.5 148.8,399.4" fill="#f3f2ee" stroke="#333" stroke-width="1.2"/><rect x="516" y="115" width="90" height="54" fill="#f5d9c8" fill-opacity="0.9" stroke="#666" stroke-width="0.6"/><text x="519.6" y="145.6" font-size="8" font-family="Helvetica, Arial" >Receiving + loading dock</text><rect x="606" y="115" width="54" height="54" fill="#f5d9c8" fill-opacity="0.9" stroke="#666" stroke-width="0.6"/><text x="609.6" y="145.6" font-size="6" font-family="Helvetica, Arial" >Refuse + recycling (compactor)</text><rect x="480" y="115" width="36" height="54" fill="#f5d9c8" fill-opacity="0.9" stroke="#666" stroke-width="0.6"/><text x="483.6" y="145.6" font-size="6" font-family="Helvetica, Arial" >Kitchen stores (dry + cold)</text><rect x="444" y="115" width="36" height="54" fill="#f5d9c8" fill-opacity="0.9" stroke="#666" stroke-width="0.6"/><text x="447.6" y="145.6" font-size="6" font-family="Helvetica, Arial" >Staff entrance + security</text><rect x="390" y="115" width="54" height="54" fill="#f5d9c8" fill-opacity="0.9" stroke="#666" stroke-width="0.6"/><text x="393.6" y="145.6" font-size="6" font-family="Helvetica, Arial" >Service elevators (2) + service stair</text><rect x="300" y="115" width="90" height="54" fill="#f5d9c8" fill-opacity="0.9" stroke="#666" stroke-width="0.6"/><text x="303.6" y="145.6" font-size="8" font-family="Helvetica, Arial" >Housekeeping + linen</text><rect x="237" y="115" width="63" height="54" fill="#f5d9c8" fill-opacity="0.9" stroke="#666" stroke-width="0.6"/><text x="240.6" y="145.6" font-size="6" font-family="Helvetica, Arial" >Staff lockers, break room, HR</text><rect x="192" y="120.4" width="45" height="48.6" fill="#f5d9c8" fill-opacity="0.9" stroke="#666" stroke-width="0.6"/><text x="195.6" y="148.3" font-size="6" font-family="Helvetica, Arial" >Main electrical / water / fire pump</text><rect x="142.5" y="169" width="517.5" height="18" fill="#f5d9c8" fill-opacity="0.9" stroke="#666" stroke-width="0.6"/><text x="146.1" y="181.6" font-size="8" font-family="Helvetica, Arial" >BOH corridor</text><rect x="142.5" y="187" width="31.5" height="30.6" fill="#f5d9c8" fill-opacity="0.9" stroke="#666" stroke-width="0.6"/><text x="146.1" y="205.9" font-size="6" font-family="Helvetica, Arial" >West service stair + mechanical</text><rect x="485.4" y="187" width="66.6" height="36" fill="#f5d9c8" fill-opacity="0.9" stroke="#666" stroke-width="0.6"/><text x="489" y="208.6" font-size="6" font-family="Helvetica, Arial" >Pool-bar pantry</text><rect x="589.8" y="187" width="70.2" height="26.1" fill="#f5d9c8" fill-opacity="0.9" stroke="#666" stroke-width="0.6"/><text x="593.4" y="203.7" font-size="6" font-family="Helvetica, Arial" >Pool plant + laundry chute room</text><rect x="564.6" y="187" width="18" height="228.6" fill="#f5d9c8" fill-opacity="0.9" stroke="#666" stroke-width="0.6"/><text x="568.2" y="304.9" font-size="6" font-family="Helvetica, Arial" >Service corridor (arrival wing)</text><rect x="435" y="399.4" width="129.6" height="48.6" fill="#f5d9c8" fill-opacity="0.9" stroke="#666" stroke-width="0.6"/><text x="438.6" y="427.3" font-size="8" font-family="Helvetica, Arial" >Main kitchen + pastry</text><rect x="147" y="415.6" width="135" height="104.4" fill="#d4e6f5" fill-opacity="0.9" stroke="#666" stroke-width="0.6"/><text x="150.6" y="471.4" font-size="8" font-family="Helvetica, Arial" >Lobby + reception</text><rect x="183" y="430" width="54" height="54" fill="#d4e6f5" fill-opacity="0.9" stroke="#666" stroke-width="0.6"/><text x="186.6" y="460.6" font-size="6" font-family="Helvetica, Arial" >Guest elevators (tower)</text><rect x="282" y="415.6" width="153" height="32.4" fill="#d4e6f5" fill-opacity="0.9" stroke="#666" stroke-width="0.6"/><text x="285.6" y="435.4" font-size="8" font-family="Helvetica, Arial" >Lobby gallery</text><rect x="282" y="448" width="171" height="56.7" fill="#e2f0d6" fill-opacity="0.9" stroke="#666" stroke-width="0.6"/><text x="285.6" y="480" font-size="8" font-family="Helvetica, Arial" >Restaurant (plaza)</text><rect x="453" y="448" width="111.6" height="56.7" fill="#e2f0d6" fill-opacity="0.9" stroke="#666" stroke-width="0.6"/><text x="456.6" y="480" font-size="8" font-family="Helvetica, Arial" >Lobby bar + café</text><rect x="564.6" y="415.6" width="39.6" height="63" fill="#d4e6f5" fill-opacity="0.9" stroke="#666" stroke-width="0.6"/><text x="568.2" y="450.7" font-size="6" font-family="Helvetica, Arial" >Arrival gallery</text><rect x="582.6" y="250" width="95.4" height="165.6" fill="#d4e6f5" fill-opacity="0.9" stroke="#666" stroke-width="0.6"/><text x="586.2" y="336.4" font-size="8" font-family="Helvetica, Arial" >Arrival lobby + bell desk</text><rect x="588" y="218.5" width="54" height="31.5" fill="#d4e6f5" fill-opacity="0.9" stroke="#666" stroke-width="0.6"/><text x="591.6" y="237.9" font-size="6" font-family="Helvetica, Arial" >Guest elevators (link)</text><rect x="174" y="192.4" width="306" height="30.6" fill="#d4e6f5" fill-opacity="0.9" stroke="#666" stroke-width="0.6"/><text x="177.6" y="211.3" font-size="8" font-family="Helvetica, Arial" >Fitness + spa changing</text><rect x="138" y="223" width="426.6" height="171" fill="#d4e6f5" fill-opacity="0.45" stroke="#666" stroke-width="0.6"/><text x="141.6" y="312.1" font-size="8" font-family="Helvetica, Arial" >Pool court</text><rect x="678" y="268" width="126" height="108" fill="#d4e6f5" fill-opacity="0.45" stroke="#666" stroke-width="0.6"/><text x="681.6" y="325.6" font-size="8" font-family="Helvetica, Arial" >Porte-cochère</text><circle cx="444" cy="448" r="5.4" fill="#c30"/><circle cx="508.8" cy="448" r="5.4" fill="#c30"/><circle cx="518.7" cy="223" r="5.4" fill="#c30"/><text x="48" y="610" font-size="10" font-family="Helvetica, Arial" >orange = service · blue = guest · green = public · red dots = declared service ↔ guest doors</text><text x="30" y="38" font-size="10" font-family="Helvetica, Arial" fill="#777">north ↑ · 1 m = 9 px · conceptual, not to be used for construction</text></svg>